<svg xmlns="http://www.w3.org/2000/svg" width="1600" height="1000" viewBox="0 0 1600 1000">
<defs>
  <linearGradient id="bg" x1="0" y1="0" x2="1" y2="1"><stop stop-color="#fff6b8"/><stop offset=".48" stop-color="#d8fff2"/><stop offset="1" stop-color="#dce8ff"/></linearGradient>
  <filter id="shadow" x="-30%" y="-30%" width="160%" height="160%"><feDropShadow dx="0" dy="14" stdDeviation="18" flood-color="#446" flood-opacity=".16"/></filter>
</defs>
<rect width="1600" height="1000" fill="url(#bg)"/>
<g opacity=".16" fill="none" stroke="#fff" stroke-width="3"><path d="M0 140C260 40 460 250 760 120s510-20 840 80"/><path d="M0 760c260-130 500 90 800-40s520-40 800 70"/></g>
<g filter="url(#shadow)"><circle cx="180" cy="170" r="115" fill="#ffd84d" stroke="#fff" stroke-width="9"/><circle cx="143.2" cy="147.0" r="8.05" fill="#222"/><circle cx="216.8" cy="147.0" r="8.05" fill="#222"/><path d="M131.7 183.8 Q 180 233.25 228.3 183.8" fill="none" stroke="#222" stroke-width="9.200000000000001" stroke-linecap="round"/></g>
<g filter="url(#shadow)"><circle cx="470" cy="190" r="92" fill="#ff8dc7" stroke="#fff" stroke-width="9"/><path d="M431.36 173.44 q 16.56 -14.72 33.12 0" fill="none" stroke="#252336" stroke-width="8.28" stroke-linecap="round"/><circle cx="500.36" cy="173.44" r="6.44" fill="#252336"/><path d="M431.36 201.04 Q 470 240.6 508.64 201.04" fill="none" stroke="#252336" stroke-width="7.36" stroke-linecap="round"/></g>
<g filter="url(#shadow)"><circle cx="770" cy="145" r="128" fill="#75d7ff" stroke="#fff" stroke-width="9"/><path d="M708.56 116.84 h 43.52 q 10.24 0 11.52 10.24 q 2.56 10.24 11.52 0 h 43.52" fill="none" stroke="#17324a" stroke-width="10.24" stroke-linecap="round"/><rect x="711.12" y="107.88" width="44.8" height="25.6" rx="7.68" fill="#17324a"/><rect x="784.08" y="107.88" width="44.8" height="25.6" rx="7.68" fill="#17324a"/><path d="M716.24 160.36 Q 770 215.4 823.76 160.36" fill="none" stroke="#17324a" stroke-width="10.24" stroke-linecap="round"/></g>
<g filter="url(#shadow)"><circle cx="1110" cy="210" r="100" fill="#a98cff" stroke="#fff" stroke-width="9"/><circle cx="1078.0" cy="190.0" r="7.000000000000001" fill="#24213b"/><circle cx="1142.0" cy="190.0" r="7.000000000000001" fill="#24213b"/><path d="M1068.0 222.0 Q 1110 265.0 1152.0 222.0" fill="none" stroke="#24213b" stroke-width="8.0" stroke-linecap="round"/></g>
<g filter="url(#shadow)"><circle cx="1420" cy="150" r="84" fill="#ff9c5b" stroke="#fff" stroke-width="9"/><path d="M1384.72 134.88 q 15.12 -13.44 30.24 0" fill="none" stroke="#342314" stroke-width="7.56" stroke-linecap="round"/><circle cx="1447.72" cy="134.88" r="5.880000000000001" fill="#342314"/><path d="M1384.72 160.08 Q 1420 196.2 1455.28 160.08" fill="none" stroke="#342314" stroke-width="6.72" stroke-linecap="round"/></g>
<g filter="url(#shadow)"><circle cx="320" cy="510" r="126" fill="#91e17b" stroke="#fff" stroke-width="9"/><path d="M259.52 482.28 h 42.84 q 10.08 0 11.34 10.08 q 2.52 10.08 11.34 0 h 42.84" fill="none" stroke="#1f3925" stroke-width="10.08" stroke-linecap="round"/><rect x="262.04" y="473.46" width="44.099999999999994" height="25.200000000000003" rx="7.56" fill="#1f3925"/><rect x="333.86" y="473.46" width="44.099999999999994" height="25.200000000000003" rx="7.56" fill="#1f3925"/><path d="M267.08 525.12 Q 320 579.3 372.92 525.12" fill="none" stroke="#1f3925" stroke-width="10.08" stroke-linecap="round"/></g>
<g filter="url(#shadow)"><circle cx="660" cy="480" r="96" fill="#ffd84d" stroke="#fff" stroke-width="9"/><path d="M619.68 462.72 q 17.28 -15.36 34.56 0" fill="none" stroke="#222" stroke-width="8.64" stroke-linecap="round"/><circle cx="691.68" cy="462.72" r="6.720000000000001" fill="#222"/><path d="M619.68 491.52 Q 660 532.8 700.32 491.52" fill="none" stroke="#222" stroke-width="7.68" stroke-linecap="round"/></g>
<g filter="url(#shadow)"><circle cx="980" cy="520" r="138" fill="#ff8dc7" stroke="#fff" stroke-width="9"/><circle cx="935.84" cy="492.4" r="9.66" fill="#252336"/><circle cx="1024.16" cy="492.4" r="9.66" fill="#252336"/><path d="M922.04 536.56 Q 980 595.9 1037.96 536.56" fill="none" stroke="#252336" stroke-width="11.040000000000001" stroke-linecap="round"/></g>
<g filter="url(#shadow)"><circle cx="1330" cy="500" r="112" fill="#75d7ff" stroke="#fff" stroke-width="9"/><path d="M1276.24 475.36 h 38.080000000000005 q 8.96 0 10.08 8.96 q 2.24 8.96 10.08 0 h 38.080000000000005" fill="none" stroke="#17324a" stroke-width="8.96" stroke-linecap="round"/><rect x="1278.48" y="467.52" width="39.199999999999996" height="22.400000000000002" rx="6.72" fill="#17324a"/><rect x="1342.32" y="467.52" width="39.199999999999996" height="22.400000000000002" rx="6.72" fill="#17324a"/><path d="M1282.96 513.44 Q 1330 561.6 1377.04 513.44" fill="none" stroke="#17324a" stroke-width="8.96" stroke-linecap="round"/></g>
<g filter="url(#shadow)"><circle cx="170" cy="820" r="82" fill="#a98cff" stroke="#fff" stroke-width="9"/><path d="M135.56 805.24 q 14.76 -13.120000000000001 29.52 0" fill="none" stroke="#24213b" stroke-width="7.38" stroke-linecap="round"/><circle cx="197.06" cy="805.24" r="5.74" fill="#24213b"/><path d="M135.56 829.84 Q 170 865.1 204.44 829.84" fill="none" stroke="#24213b" stroke-width="6.5600000000000005" stroke-linecap="round"/></g>
<g filter="url(#shadow)"><circle cx="510" cy="790" r="118" fill="#ff9c5b" stroke="#fff" stroke-width="9"/><circle cx="472.24" cy="766.4" r="8.260000000000002" fill="#342314"/><circle cx="547.76" cy="766.4" r="8.260000000000002" fill="#342314"/><path d="M460.44 804.16 Q 510 854.9 559.56 804.16" fill="none" stroke="#342314" stroke-width="9.44" stroke-linecap="round"/></g>
<g filter="url(#shadow)"><circle cx="850" cy="830" r="92" fill="#91e17b" stroke="#fff" stroke-width="9"/><path d="M805.84 809.76 h 31.28 q 7.36 0 8.28 7.36 q 1.84 7.36 8.28 0 h 31.28" fill="none" stroke="#1f3925" stroke-width="7.36" stroke-linecap="round"/><rect x="807.68" y="803.32" width="32.199999999999996" height="18.400000000000002" rx="5.52" fill="#1f3925"/><rect x="860.12" y="803.32" width="32.199999999999996" height="18.400000000000002" rx="5.52" fill="#1f3925"/><path d="M811.36 841.04 Q 850 880.6 888.64 841.04" fill="none" stroke="#1f3925" stroke-width="7.36" stroke-linecap="round"/></g>
<g filter="url(#shadow)"><circle cx="1190" cy="800" r="125" fill="#ffd84d" stroke="#fff" stroke-width="9"/><path d="M1137.5 777.5 q 22.5 -20.0 45.0 0" fill="none" stroke="#222" stroke-width="11.25" stroke-linecap="round"/><circle cx="1231.25" cy="777.5" r="8.75" fill="#222"/><path d="M1137.5 815.0 Q 1190 868.75 1242.5 815.0" fill="none" stroke="#222" stroke-width="10.0" stroke-linecap="round"/></g>
<g filter="url(#shadow)"><circle cx="1470" cy="820" r="78" fill="#ff8dc7" stroke="#fff" stroke-width="9"/><circle cx="1445.04" cy="804.4" r="5.460000000000001" fill="#252336"/><circle cx="1494.96" cy="804.4" r="5.460000000000001" fill="#252336"/><path d="M1437.24 829.36 Q 1470 862.9 1502.76 829.36" fill="none" stroke="#252336" stroke-width="6.24" stroke-linecap="round"/></g>
</svg>
